# xmcd CD database file
#
# Track frame offsets:
#	150
#	28180
#	51502
#	70679
#	91924
#	112113
#	127983
#	156430
#	179255
#	205526
#
# Disc length: 3049 seconds
#
# Revision: 0
# Processed by: cddbd v1.5.1PL2 Copyright (c) Steve Scherf et al.
# Submitted via: CDex 1.51
#
DISCID=880be70a
DTITLE=The Brew - Rumba caliente
DYEAR=2004
DGENRE=Salsa
TTITLE0=Rumba Del Cielo
TTITLE1=Jalapeno Charlie
TTITLE2=Engano
TTITLE3=If I Fell
TTITLE4=Fuego a la Jicotea
TTITLE5=Mueve tu Cintura
TTITLE6=Europa
TTITLE7=Manzanillo
TTITLE8=Me Vuelvo Guajiro
TTITLE9=3:00 AM
EXTD=YEAR: 2004
EXTT0=
EXTT1=
EXTT2=
EXTT3=
EXTT4=
EXTT5=
EXTT6=
EXTT7=
EXTT8=
EXTT9=
PLAYORDER=
